<?xml version="1.0" encoding="utf-8"?>
<svg xmlns="http://www.w3.org/2000/svg" viewBox="96.789 178.174 220.457 107.5601" width="220.457px" height="107.5601px">
  <path style="paint-order: fill; stroke: rgb(255, 255, 255); fill: rgb(255, 255, 255);" d="M 96.826 178.756 L 96.789 202.319 L 135.331 202.469 C 135.331 202.469 135.031 285.703 135.031 285.553 C 135.031 285.403 157.377 285.853 157.527 285.703 C 157.677 285.553 157.677 202.169 157.677 202.169 L 205.968 202.169 L 193.67 178.174 L 96.826 178.756 Z" id="object-0" transform="matrix(1, 0, 0, 1, 0, -7.105427357601002e-15)"/>
  <path style="paint-order: fill; stroke: rgb(255, 255, 255); fill: rgb(255, 255, 255);" d="M 183.922 221.815 L 206.267 221.965 L 206.417 285.103 L 183.922 284.953 L 183.922 221.815 Z" id="object-1" transform="matrix(1, 0, 0, 1, 0, -7.105427357601002e-15)"/>
  <path style="paint-order: fill; stroke: rgb(255, 255, 255); fill: rgb(255, 255, 255);" d="M 261.157 237.862 C 261.157 237.862 230.263 179.074 230.113 178.924 C 229.963 178.774 204.168 178.474 204.168 178.474 L 260.707 284.353 L 296.85 217.316 L 297.45 285.103 L 317.246 285.103 L 316.946 179.374 L 291.901 179.374 L 261.157 237.862 Z" id="object-2" transform="matrix(1, 0, 0, 1, 0, -7.105427357601002e-15)"/>
</svg>